<?xml version="1.0" encoding="UTF-8" standalone="no"?>
<svg
   xmlns:dc="http://purl.org/dc/elements/1.1/"
   xmlns:cc="http://creativecommons.org/ns#"
   xmlns:rdf="http://www.w3.org/1999/02/22-rdf-syntax-ns#"
   xmlns:svg="http://www.w3.org/2000/svg"
   xmlns="http://www.w3.org/2000/svg"
   xmlns:sodipodi="http://sodipodi.sourceforge.net/DTD/sodipodi-0.dtd"
   xmlns:inkscape="http://www.inkscape.org/namespaces/inkscape"
   sodipodi:docname="licence.svg"
   inkscape:version="1.0 (4035a4fb49, 2020-05-01)"
   id="svg8"
   version="1.1"
   viewBox="0 0 85 110"
   height="110mm"
   width="85mm">
  <defs
     id="defs2" />
  <sodipodi:namedview
     inkscape:snap-smooth-nodes="true"
     inkscape:snap-intersection-paths="true"
     inkscape:window-maximized="1"
     inkscape:window-y="-9"
     inkscape:window-x="-9"
     inkscape:window-height="1001"
     inkscape:window-width="1920"
     units="mm"
     showgrid="false"
     inkscape:document-rotation="0"
     inkscape:current-layer="layer1"
     inkscape:document-units="mm"
     inkscape:cy="179.86524"
     inkscape:cx="176.7428"
     inkscape:zoom="1.3623457"
     inkscape:pageshadow="2"
     inkscape:pageopacity="0.0"
     borderopacity="1.0"
     bordercolor="#666666"
     pagecolor="#ffffff"
     id="base" />
  <metadata
     id="metadata5">
    <rdf:RDF>
      <cc:Work
         rdf:about="">
        <dc:format>image/svg+xml</dc:format>
        <dc:type
           rdf:resource="http://purl.org/dc/dcmitype/StillImage" />
        <dc:title></dc:title>
      </cc:Work>
    </rdf:RDF>
  </metadata>
  <g
     id="layer1"
     inkscape:groupmode="layer"
     inkscape:label="Layer 1">
    <path
       d="m 1.5,1.5 v 107 h 82 V 20.56027 L 64.371761,1.5 Z"
       style="fill:#ffffff;fill-opacity:1;stroke:#000000;stroke-width:3;stroke-linecap:square;stroke-miterlimit:4;stroke-dasharray:none;stroke-opacity:1"
       id="rect833" />
    <path
       d="M 83.500002,20.560271 64.371762,1.5 l -10e-7,19.060272 z"
       style="fill:#ffffff;fill-opacity:1;stroke:#000000;stroke-width:3;stroke-linecap:square;stroke-linejoin:bevel;stroke-miterlimit:4;stroke-dasharray:none;stroke-opacity:1"
       id="rect837" />
    <circle
       r="16"
       cy="25.5"
       cx="25.5"
       id="path849"
       style="fill:none;fill-opacity:1;stroke:#000000;stroke-width:3;stroke-linecap:square;stroke-linejoin:bevel;stroke-miterlimit:4;stroke-dasharray:none;stroke-opacity:1" />
    <circle
       style="fill:none;fill-opacity:1;stroke:#000000;stroke-width:1.5;stroke-linecap:square;stroke-linejoin:bevel;stroke-miterlimit:4;stroke-dasharray:none;stroke-opacity:1"
       id="circle851"
       cx="25.5"
       cy="25.5"
       r="12.429463" />
    <path
       sodipodi:nodetypes="cc"
       id="path939"
       d="m 22.091569,31.013164 h 6.81258"
       style="fill:none;stroke:#000000;stroke-width:1;stroke-linecap:round;stroke-linejoin:miter;stroke-miterlimit:4;stroke-dasharray:none;stroke-opacity:1" />
    <path
       id="path857"
       d="m 13.461125,65.25 h 58.07775"
       style="fill:none;stroke:#000000;stroke-width:3;stroke-linecap:round;stroke-linejoin:miter;stroke-miterlimit:4;stroke-dasharray:none;stroke-opacity:1" />
    <path
       style="fill:none;stroke:#000000;stroke-width:3;stroke-linecap:round;stroke-linejoin:miter;stroke-miterlimit:4;stroke-dasharray:none;stroke-opacity:1"
       d="m 13.461125,73.75 h 58.07775"
       id="path859" />
    <path
       id="path861"
       d="m 13.461125,82.55 h 58.07775"
       style="fill:none;stroke:#000000;stroke-width:3;stroke-linecap:round;stroke-linejoin:miter;stroke-miterlimit:4;stroke-dasharray:none;stroke-opacity:1" />
    <path
       style="fill:none;stroke:#000000;stroke-width:3;stroke-linecap:round;stroke-linejoin:miter;stroke-miterlimit:4;stroke-dasharray:none;stroke-opacity:1"
       d="m 13.461125,91.25 h 58.07775"
       id="path863" />
    <path
       sodipodi:nodetypes="cc"
       id="path917"
       d="M 25.497859,18.988736 V 31.013164"
       style="fill:none;stroke:#000000;stroke-width:1;stroke-linecap:round;stroke-linejoin:miter;stroke-miterlimit:4;stroke-dasharray:none;stroke-opacity:1" />
    <path
       transform="scale(0.26458333)"
       d="M 78.505859 83.523438 L 69.802734 103.16602 A 15.169789 15.169789 0 0 0 78.398438 105.83398 A 15.169789 15.169789 0 0 0 87.15625 103.04883 L 78.505859 83.523438 z "
       style="fill:none;fill-opacity:1;stroke:#000000;stroke-width:3.77952761;stroke-linecap:round;stroke-linejoin:round;stroke-miterlimit:4;stroke-dasharray:none;stroke-opacity:1"
       id="path923" />
    <path
       id="path943"
       style="fill:none;fill-opacity:1;stroke:#000000;stroke-width:1;stroke-linecap:round;stroke-linejoin:round;stroke-miterlimit:4;stroke-dasharray:none;stroke-opacity:1"
       d="m 30.224376,22.098909 2.302702,5.1971 a 4.0136733,4.0136733 0 0 1 -2.27428,0.705898 4.0136733,4.0136733 0 0 1 -2.317171,-0.736904 z" />
    <path
       style="fill:none;stroke:#000000;stroke-width:1;stroke-linecap:round;stroke-linejoin:round;stroke-miterlimit:4;stroke-dasharray:none;stroke-opacity:1"
       d="m 31.791514,21.588381 h -2.832397 l -1.515548,-0.988088 h -3.89142 l -1.515548,0.988088 h -2.832397"
       id="path945"
       sodipodi:nodetypes="cccccc" />
    <path
       sodipodi:nodetypes="csscsccccscscssc"
       id="path880"
       stroke-width="2.64582"
       stroke-linecap="round"
       stroke="#0000ff"
       d="m 76.247327,37.498105 c 0.0064,-0.874049 0.0161,-1.748098 -0.378934,-1.748098 -0.790089,0 -2.811281,3.503767 -3.599835,3.499983 -0.788553,-0.0037 0.03377,-3.499983 -0.756321,-3.499983 -0.79009,0 -2.811283,3.503767 -3.599837,3.499983 -0.788553,-0.0037 0.03377,-3.499983 -0.75632,-3.499983 -0.79009,0 -2.811284,3.503767 -3.599836,3.499983 -0.788562,-0.0037 0.03375,-3.499983 -0.756329,-3.499983 -0.788562,-0.0037 -2.809747,3.499982 -3.599829,3.499983 -0.790091,0 0.03223,-3.496206 -0.75632,-3.499983 -0.788569,-0.0037 -2.809747,3.499982 -3.599837,3.499983 -0.790091,-10e-7 0.03223,-3.496206 -0.75633,-3.499983 -0.78856,-0.0037 -2.809737,3.499983 -3.599828,3.499983 -0.79009,1e-6 0.03223,-3.496206 -0.75632,-3.499983 -0.788568,-0.0037 -2.809746,3.499983 -3.599837,3.499984 -0.395044,0 -0.385209,-0.874051 -0.378932,-1.7481"
       style="fill:none;stroke:#000000;stroke-width:1.5;stroke-miterlimit:4;stroke-dasharray:none;stroke-opacity:1" />
  </g>
</svg>
