<svg xmlns="http://www.w3.org/2000/svg" xml:space="preserve" width="246.14999" height="200.013"><path fill="#fff" d="M220.95 49.792718c.15 2.170004.15 4.340008.15 6.530012 0 66.73013-50.8 143.69027-143.69 143.69027v-.04c-27.44.04-54.31-7.82001-77.41-22.64004 3.99.48 8 .72 12.02.73 22.74.02 44.83-7.61002 62.72-21.66004-21.61-.41-40.56-14.50003-47.18-35.07007 7.57 1.46 15.37 1.16 22.8-.87C26.8 115.70284 9.85 95.002803 9.85 70.962758v-.640002c7.02 3.910008 14.88 6.080012 22.92 6.320012C10.58 61.81274 3.74 32.292685 17.14 9.2126417 42.78 40.762701 80.61 59.942737 121.22 61.972741c-4.07-17.540033 1.49-35.920068 14.61-48.250091 20.34-19.1200357 52.33-18.1400339 71.45 2.190004 11.31-2.230004 22.15-6.3800117 32.07-12.2600228-3.77 11.6900218-11.66 21.6200408-22.2 27.9300528 10.01-1.180003 19.79-3.860008 29-7.950015-6.78 10.160019-15.32 19.010035-25.2 26.160049z"/></svg>